<svg width="141" height="64" viewBox="0 0 141 64" fill="none" xmlns="http://www.w3.org/2000/svg">
<path d="M24.3105 17.541V46H17.8418V26.7871L15.2578 46H10.6699L7.94531 27.2266V46H1.47656V17.541H11.0566C11.3379 19.252 11.6367 21.2676 11.9531 23.5879L12.9727 30.8301L14.6602 17.541H24.3105ZM27.2812 17.541H39.6211V23.2363H34.6816V28.6328H39.3047V34.0469H34.6816V40.3047H40.1133V46H27.2812V17.541ZM59.2734 17.541V46H51.873V34.0469H49.6582V46H42.2578V17.541H49.6582V27.7188H51.873V17.541H59.2734ZM71.7012 34.0469H69.6797V46H62.2617V17.5234H69.6797V27.7188H71.7012C71.7246 25.2461 71.8477 23.4648 72.0703 22.375C72.3047 21.2734 72.7969 20.3594 73.5469 19.6328C74.2969 18.8945 75.2227 18.373 76.3242 18.0684C77.4375 17.752 78.75 17.5938 80.2617 17.5938C81.8438 17.5938 83.1973 17.7637 84.3223 18.1035C85.459 18.4316 86.3965 18.9941 87.1348 19.791C87.873 20.5879 88.3359 21.6191 88.5234 22.8848C88.7227 24.1504 88.8223 26.3008 88.8223 29.3359V34.1875C88.8223 37.2578 88.7285 39.4141 88.541 40.6562C88.3535 41.8984 87.8848 42.9297 87.1348 43.75C86.3965 44.5703 85.4531 45.1621 84.3047 45.5254C83.168 45.8887 81.8203 46.0703 80.2617 46.0703C78.8086 46.0703 77.5371 45.9121 76.4473 45.5957C75.3574 45.2793 74.4434 44.7754 73.7051 44.084C72.9785 43.3926 72.498 42.6484 72.2637 41.8516C72.0293 41.0547 71.877 40.0703 71.8066 38.8984C71.7363 37.7148 71.7012 36.1445 71.7012 34.1875V34.0469ZM81.4219 38.9863V24.8711C81.4219 23.6758 81.3574 22.8555 81.2285 22.4102C81.1113 21.9648 80.7891 21.7422 80.2617 21.7422C79.8398 21.7422 79.541 21.918 79.3652 22.2695C79.1895 22.6094 79.1016 23.4766 79.1016 24.8711V39.4785C79.1016 40.2168 79.1719 40.7852 79.3125 41.1836C79.4531 41.582 79.7578 41.7812 80.2266 41.7812C80.6367 41.7812 80.9355 41.623 81.123 41.3066C81.3223 40.9785 81.4219 40.2051 81.4219 38.9863Z" fill="white"/>
<path d="M106 22H136V25.3333H106V22ZM106 30.3333H136V33.6667H106V30.3333ZM106 38.6667H136V42H106V38.6667Z" fill="white"/>
</svg>
