<svg width="147" height="60" viewBox="0 0 147 60" fill="none" xmlns="http://www.w3.org/2000/svg">
<path d="M12.5039 28.8008H7.57031V25.4961C7.57031 24.5352 7.51562 23.9375 7.40625 23.7031C7.30469 23.4609 7.07422 23.3398 6.71484 23.3398C6.30859 23.3398 6.05078 23.4844 5.94141 23.7734C5.83203 24.0625 5.77734 24.6875 5.77734 25.6484V34.4609C5.77734 35.3828 5.83203 35.9844 5.94141 36.2656C6.05078 36.5469 6.29688 36.6875 6.67969 36.6875C7.04688 36.6875 7.28516 36.5469 7.39453 36.2656C7.51172 35.9844 7.57031 35.3242 7.57031 34.2852V31.9062H12.5039V32.6445C12.5039 34.6055 12.3633 35.9961 12.082 36.8164C11.8086 37.6367 11.1953 38.3555 10.2422 38.9727C9.29688 39.5898 8.12891 39.8984 6.73828 39.8984C5.29297 39.8984 4.10156 39.6367 3.16406 39.1133C2.22656 38.5898 1.60547 37.8672 1.30078 36.9453C0.996094 36.0156 0.84375 34.6211 0.84375 32.7617V27.2188C0.84375 25.8516 0.890625 24.8281 0.984375 24.1484C1.07812 23.4609 1.35547 22.8008 1.81641 22.168C2.28516 21.5352 2.92969 21.0391 3.75 20.6797C4.57812 20.3125 5.52734 20.1289 6.59766 20.1289C8.05078 20.1289 9.25 20.4102 10.1953 20.9727C11.1406 21.5352 11.7617 22.2383 12.0586 23.082C12.3555 23.918 12.5039 25.2227 12.5039 26.9961V28.8008ZM14.2734 20.5273H19.1953C20.75 20.5273 21.9258 20.6484 22.7227 20.8906C23.5273 21.1328 24.1758 21.625 24.668 22.3672C25.1602 23.1016 25.4062 24.2891 25.4062 25.9297C25.4062 27.0391 25.2305 27.8125 24.8789 28.25C24.5352 28.6875 23.8516 29.0234 22.8281 29.2578C23.9688 29.5156 24.7422 29.9453 25.1484 30.5469C25.5547 31.1406 25.7578 32.0547 25.7578 33.2891V35.0469C25.7578 36.3281 25.6094 37.2773 25.3125 37.8945C25.0234 38.5117 24.5586 38.9336 23.918 39.1602C23.2773 39.3867 21.9648 39.5 19.9805 39.5H14.2734V20.5273ZM19.207 23.7734V27.9922C19.418 27.9844 19.582 27.9805 19.6992 27.9805C20.1836 27.9805 20.4922 27.8633 20.625 27.6289C20.7578 27.3867 20.8242 26.7031 20.8242 25.5781C20.8242 24.9844 20.7695 24.5703 20.6602 24.3359C20.5508 24.0938 20.4062 23.9414 20.2266 23.8789C20.0547 23.8164 19.7148 23.7812 19.207 23.7734ZM19.207 30.9453V36.2539C19.9023 36.2305 20.3438 36.1211 20.5312 35.9258C20.7266 35.7305 20.8242 35.25 20.8242 34.4844V32.7148C20.8242 31.9023 20.7383 31.4102 20.5664 31.2383C20.3945 31.0664 19.9414 30.9688 19.207 30.9453ZM27.5391 20.5273H35.7656V24.3242H32.4727V27.9219H35.5547V31.5312H32.4727V35.7031H36.0938V39.5H27.5391V20.5273ZM37.5234 20.5273H42.4922C43.8359 20.5273 44.8672 20.6328 45.5859 20.8438C46.3125 21.0547 46.8555 21.3594 47.2148 21.7578C47.582 22.1562 47.8281 22.6406 47.9531 23.2109C48.0859 23.7734 48.1523 24.6484 48.1523 25.8359V27.4883C48.1523 28.6992 48.0273 29.582 47.7773 30.1367C47.5273 30.6914 47.0664 31.1172 46.3945 31.4141C45.7305 31.7109 44.8594 31.8594 43.7812 31.8594H42.457V39.5H37.5234V20.5273ZM42.457 23.7734V28.6016C42.5977 28.6094 42.7188 28.6133 42.8203 28.6133C43.2734 28.6133 43.5859 28.5039 43.7578 28.2852C43.9375 28.0586 44.0273 27.5938 44.0273 26.8906V25.332C44.0273 24.6836 43.9258 24.2617 43.7227 24.0664C43.5195 23.8711 43.0977 23.7734 42.457 23.7734ZM60.9141 20.5273V39.5H55.9805V31.5312H54.5039V39.5H49.5703V20.5273H54.5039V27.3125H55.9805V20.5273H60.9141ZM72.6797 20.5156L71.332 33.0898C71.1211 35.0742 70.8945 36.4688 70.6523 37.2734C70.4102 38.0703 69.9414 38.6406 69.2461 38.9844C68.5508 39.3281 67.4062 39.5 65.8125 39.5H62.9297V37.0508H63.2227C63.8711 37.0508 64.2695 37 64.418 36.8984C64.5742 36.7891 64.6523 36.625 64.6523 36.4062C64.6523 36.3906 64.5586 35.8555 64.3711 34.8008L61.7812 20.5156H66.0703L67.6289 32.3281L68.3789 20.5156H72.6797ZM83.6016 20.5273V24.3242H80.6719V39.5H75.7383V24.3242H72.8203V20.5273H83.6016ZM96.2227 35.0586C96.2227 36.4727 96.0391 37.4883 95.6719 38.1055C95.3047 38.7227 94.7461 39.1094 93.9961 39.2656C93.2539 39.4219 92.0664 39.5 90.4336 39.5H84.7266V20.5156H89.6719V27.0195H90.4336C91.957 27.0195 93.1094 27.1094 93.8906 27.2891C94.6719 27.4688 95.2539 27.8672 95.6367 28.4844C96.0273 29.0938 96.2227 30.0547 96.2227 31.3672V35.0586ZM91.2773 34.4844V31.7422C91.2773 30.9453 91.1953 30.4609 91.0312 30.2891C90.875 30.1172 90.4219 30.0195 89.6719 29.9961V36.2305C90.2969 36.2305 90.7188 36.1523 90.9375 35.9961C91.1641 35.832 91.2773 35.3281 91.2773 34.4844Z" fill="white"/>
<path d="M142 26.5H112V23H142V26.5ZM142 37H112V33.5H142V37Z" fill="white"/>
</svg>
